<svg width="24" height="20" viewBox="0 0 24 20" fill="none" xmlns="http://www.w3.org/2000/svg">
<path d="M21.2081 2.18326C20.6761 1.65097 20.0444 1.22872 19.3491 0.940637C18.6539 0.652551 17.9086 0.504272 17.156 0.504272C16.4035 0.504272 15.6582 0.652551 14.963 0.940637C14.2677 1.22872 13.636 1.65097 13.104 2.18326L11.9998 3.28742L10.8956 2.18326C9.82095 1.10858 8.36337 0.50483 6.84355 0.50483C5.32372 0.50483 3.86614 1.10858 2.79147 2.18326C1.71679 3.25794 1.11304 4.71551 1.11304 6.23534C1.11304 7.75517 1.71679 9.21274 2.79147 10.2874L3.89563 11.3916L11.9998 19.4958L20.104 11.3916L21.2081 10.2874C21.7404 9.75539 22.1627 9.12369 22.4508 8.42842C22.7388 7.73315 22.8871 6.98793 22.8871 6.23534C22.8871 5.48275 22.7388 4.73753 22.4508 4.04226C22.1627 3.34699 21.7404 2.71529 21.2081 2.18326Z" stroke="black" stroke-linecap="round" stroke-linejoin="round"/>
</svg>
