<svg width="174" height="17" viewBox="0 0 174 17" fill="none" xmlns="http://www.w3.org/2000/svg">
<g clip-path="url(#clip0_425_5389)">
<path d="M37.9312 8.77878C37.9312 4.908 41.0343 2.38416 45.7519 2.38416C50.1164 2.38416 53.1817 4.47646 53.4971 7.60185H49.3975C49.1956 6.54261 47.7954 5.73185 45.7519 5.73185C43.4435 5.73185 41.9425 6.96108 41.9425 8.77878C41.9425 10.5965 43.431 11.8519 45.7519 11.8519C47.7829 11.8519 49.1956 11.0411 49.3975 9.9688H53.4971C53.1817 13.1334 50.1164 15.2257 45.7519 15.2257C41.0343 15.2257 37.9312 12.6888 37.9312 8.77878Z" fill="#1F1F1F"/>
<path d="M55.1125 2.67184H58.9725V14.8726H55.1125V2.67184Z" fill="#1F1F1F"/>
<path d="M61.2159 2.67184H70.8153C74.0446 2.67184 75.6466 3.95338 75.6466 6.41184C75.6466 8.09876 74.7636 9.19727 73.1742 9.69412C74.6879 9.7988 75.634 10.7011 75.634 12.1919V14.8726H71.7741V12.8326C71.7741 11.7473 71.4839 11.4203 70.4243 11.4203H65.0633V14.8726H61.2034V2.67184H61.2159ZM69.8819 8.22953C70.9162 8.22953 71.6227 8.0203 71.6227 7.03953C71.6227 6.05876 70.9162 5.86261 69.8819 5.86261H65.0633V8.22953H69.8819Z" fill="#1F1F1F"/>
<path d="M77.0605 8.77878C77.0605 4.908 80.1636 2.38416 84.8813 2.38416C89.2458 2.38416 92.3107 4.47646 92.6264 7.60185H88.5268C88.325 6.54261 86.9248 5.73185 84.8813 5.73185C82.5729 5.73185 81.0718 6.96108 81.0718 8.77878C81.0718 10.5965 82.5603 11.8519 84.8813 11.8519C86.9122 11.8519 88.325 11.0411 88.5268 9.9688H92.6264C92.3107 13.1334 89.2458 15.2257 84.8813 15.2257C80.1636 15.2257 77.0605 12.6888 77.0605 8.77878Z" fill="#1F1F1F"/>
<path d="M94.2399 8.90953V2.67184H98.0876V8.77876C98.0876 10.3088 98.7432 11.8519 101.405 11.8519C104.066 11.8519 104.697 10.2826 104.697 8.77876V2.67184H108.57V8.90953C108.57 13.0026 106.438 15.2126 101.405 15.2126C96.3718 15.2126 94.2399 13.0026 94.2399 8.90953Z" fill="#1F1F1F"/>
<path d="M110.323 2.67184H114.17V11.5119H122.029V14.8726H110.323V2.67184Z" fill="#1F1F1F"/>
<path d="M122.711 1.59955H126.483L125.322 8.11186H122.042L122.711 1.59955Z" fill="#1F1F1F"/>
<path d="M131.856 2.67184H136.776L142.792 14.8726H138.68L137.646 12.6103H130.973L129.926 14.8726H125.826L131.856 2.67184ZM136.321 9.74646L134.303 5.37876L132.285 9.74646H136.321Z" fill="#1F1F1F"/>
<path d="M144.104 2.67184H153.704C156.934 2.67184 158.536 3.95338 158.536 6.41184C158.536 8.09876 157.652 9.19727 156.063 9.69412C157.577 9.7988 158.523 10.7011 158.523 12.1919V14.8726H154.663V12.8326C154.663 11.7473 154.373 11.4203 153.313 11.4203H147.952V14.8726H144.092V2.67184H144.104ZM152.783 8.22953C153.818 8.22953 154.524 8.0203 154.524 7.03953C154.524 6.05876 153.818 5.86261 152.783 5.86261H147.965V8.22953H152.783Z" fill="#1F1F1F"/>
<path d="M159.998 2.67184H174V6.03261H168.929V14.8726H165.07V6.03261H159.986V2.67184H159.998Z" fill="#1F1F1F"/>
<path d="M1.26142 17C1.95808 17 2.52284 13.1944 2.52284 8.5C2.52284 3.80558 1.95808 0 1.26142 0C0.564756 0 0 3.80558 0 8.5C0 13.1944 0.564756 17 1.26142 17Z" fill="#1F1F1F"/>
<path d="M6.30677 17C7.70009 17 8.8296 13.1944 8.8296 8.5C8.8296 3.80558 7.70009 0 6.30677 0C4.91345 0 3.78394 3.80558 3.78394 8.5C3.78394 13.1944 4.91345 17 6.30677 17Z" fill="#1F1F1F"/>
<path d="M14.507 17C16.9453 17 18.9219 13.1944 18.9219 8.5C18.9219 3.80558 16.9453 0 14.507 0C12.0686 0 10.092 3.80558 10.092 8.5C10.092 13.1944 12.0686 17 14.507 17Z" fill="#1F1F1F"/>
<path d="M27.1199 17C30.9516 17 34.0576 13.1944 34.0576 8.5C34.0576 3.80558 30.9516 0 27.1199 0C23.2882 0 20.1821 3.80558 20.1821 8.5C20.1821 13.1944 23.2882 17 27.1199 17Z" fill="#1F1F1F"/>
</g>
<defs>
<clipPath id="clip0_425_5389">
<rect width="174" height="17" fill="white"/>
</clipPath>
</defs>
</svg>
