<svg width="22" height="28" viewBox="0 0 22 28" fill="none" xmlns="http://www.w3.org/2000/svg">
<path d="M11.0002 16.6665C13.9416 16.6665 16.3336 14.2745 16.3336 11.3332C16.3336 8.39184 13.9416 5.99984 11.0002 5.99984C8.05891 5.99984 5.66691 8.39184 5.66691 11.3332C5.66691 14.2745 8.05891 16.6665 11.0002 16.6665ZM11.0002 8.6665C12.4709 8.6665 13.6669 9.8625 13.6669 11.3332C13.6669 12.8038 12.4709 13.9998 11.0002 13.9998C9.52958 13.9998 8.33358 12.8038 8.33358 11.3332C8.33358 9.8625 9.52958 8.6665 11.0002 8.6665Z" fill="black"/>
<path d="M10.2269 27.0852C10.4526 27.2463 10.723 27.333 11.0003 27.333C11.2776 27.333 11.5479 27.2463 11.7736 27.0852C12.1789 26.7985 21.7056 19.9198 21.6669 11.3332C21.6669 5.45184 16.8816 0.666504 11.0003 0.666504C5.11895 0.666504 0.333613 5.45184 0.333613 11.3265C0.294947 19.9198 9.82161 26.7985 10.2269 27.0852ZM11.0003 3.33317C15.4123 3.33317 19.0003 6.92117 19.0003 11.3398C19.0283 17.2572 13.1496 22.5705 11.0003 24.3132C8.85228 22.5692 2.97228 17.2545 3.00028 11.3332C3.00028 6.92117 6.58828 3.33317 11.0003 3.33317Z" fill="black"/>
</svg>
