<svg width="25" height="26" viewBox="0 0 25 26" fill="none" xmlns="http://www.w3.org/2000/svg">
<path d="M6.25 2.58331L3.125 6.74998V21.3333C3.125 21.8858 3.34449 22.4158 3.73519 22.8065C4.12589 23.1972 4.6558 23.4166 5.20833 23.4166H19.7917C20.3442 23.4166 20.8741 23.1972 21.2648 22.8065C21.6555 22.4158 21.875 21.8858 21.875 21.3333V6.74998L18.75 2.58331H6.25Z" stroke="black" stroke-linecap="round" stroke-linejoin="round"/>
<path d="M3.125 6.75H21.875" stroke="black" stroke-linecap="round" stroke-linejoin="round"/>
<path d="M16.6654 10.9166C16.6654 12.0217 16.2264 13.0815 15.445 13.8629C14.6636 14.6443 13.6038 15.0833 12.4987 15.0833C11.3936 15.0833 10.3338 14.6443 9.55242 13.8629C8.77102 13.0815 8.33203 12.0217 8.33203 10.9166" stroke="black" stroke-linecap="round" stroke-linejoin="round"/>
</svg>
