<svg width="16" height="17" viewBox="0 0 16 17" fill="none" xmlns="http://www.w3.org/2000/svg">
<path fill-rule="evenodd" clip-rule="evenodd" d="M15.9144 6.55648L15.9782 6.75648C16.0307 6.90743 15.9865 7.0752 15.8665 7.18048L11.9892 10.5005L13.138 15.4765C13.1769 15.6355 13.1172 15.8025 12.9864 15.9005L12.8109 16.0205C12.7427 16.0741 12.6582 16.1023 12.5716 16.1005C12.4985 16.102 12.4266 16.0826 12.3642 16.0445L8.00016 13.3805L3.66011 16.0445C3.59771 16.0826 3.52573 16.102 3.45267 16.1005C3.36607 16.1023 3.28151 16.0741 3.21334 16.0205L3.01388 15.9005C2.88308 15.8025 2.8234 15.6355 2.8623 15.4765L4.01114 10.5005L0.14179 7.18848C0.0156062 7.08382 -0.0321581 6.9114 0.0221197 6.75648L0.109878 6.55648C0.15654 6.39842 0.296829 6.28652 0.460912 6.27648L5.55888 5.86848L7.5135 1.15648C7.57613 0.999996 7.72831 0.898266 7.89645 0.90048H8.10385C8.27049 0.896934 8.42105 0.999718 8.47881 1.15648L10.4654 5.86848L15.5634 6.27648C15.7275 6.28652 15.8677 6.39842 15.9144 6.55648ZM11.2871 13.7485L10.3936 10.0045L13.3215 7.50048L9.48409 7.19648L8.00016 3.62848V11.7405L11.2871 13.7485Z" fill="black"/>
</svg>
