<svg width="15" height="16" viewBox="0 0 15 16" fill="none" xmlns="http://www.w3.org/2000/svg">
<path d="M13.5079 3.79306C12.7173 3.62394 12.0014 3.20672 11.4645 2.6022C10.9276 1.99769 10.5979 1.23749 10.5233 0.432438V0.083313H7.79606V10.907C7.79437 11.3862 7.64258 11.8528 7.36203 12.2412C7.08148 12.6297 6.68626 12.9205 6.23192 13.0727C5.77757 13.225 5.28694 13.2311 4.82896 13.0901C4.37099 12.9492 3.96869 12.6682 3.6786 12.2869C3.38401 11.8991 3.22059 11.4275 3.21204 10.9406C3.2035 10.4537 3.35027 9.97676 3.63107 9.57888C3.91188 9.18101 4.31212 8.88292 4.77375 8.72785C5.23538 8.57278 5.73441 8.56878 6.19847 8.71644V5.9456C5.16365 5.80255 4.10999 5.98653 3.18488 6.4718C2.25976 6.95707 1.50946 7.71937 1.03893 8.65206C0.568392 9.58476 0.401154 10.6412 0.560606 11.6736C0.720058 12.7061 1.19823 13.6628 1.92822 14.4101C2.62438 15.1224 3.51701 15.6111 4.49216 15.8138C5.46731 16.0165 6.48075 15.9241 7.40311 15.5482C8.32548 15.1724 9.11492 14.5302 9.67068 13.7037C10.2264 12.8772 10.5233 11.9038 10.5233 10.9078V5.37719C11.6255 6.16516 12.9471 6.58768 14.302 6.58527V3.8754C14.0351 3.87573 13.769 3.84813 13.5079 3.79306Z" fill="black"/>
</svg>
